<mxfile host="app.diagrams.net" modified="2023-04-30T05:52:09.745Z" agent="Mozilla/5.0 (Windows NT 10.0; Win64; x64) AppleWebKit/537.36 (KHTML, like Gecko) Chrome/112.0.0.0 Safari/537.36 Edg/112.0.1722.64" etag="ZMqxKrJ7jxferAaf7QNO" version="21.2.2" type="github">
  <diagram name="Page-1" id="5f0bae14-7c28-e335-631c-24af17079c00">
    <mxGraphModel dx="1505" dy="989" grid="1" gridSize="10" guides="1" tooltips="1" connect="1" arrows="1" fold="1" page="1" pageScale="1" pageWidth="1100" pageHeight="850" background="none" math="0" shadow="0">
      <root>
        <mxCell id="0" />
        <mxCell id="1" parent="0" />
        <mxCell id="LXzwiHQWEJw4YaXI4GBI-1" value="注册" style="rounded=1;whiteSpace=wrap;html=1;" vertex="1" parent="1">
          <mxGeometry x="350" y="130" width="120" height="60" as="geometry" />
        </mxCell>
        <mxCell id="LXzwiHQWEJw4YaXI4GBI-22" value="" style="edgeStyle=orthogonalEdgeStyle;rounded=0;orthogonalLoop=1;jettySize=auto;html=1;" edge="1" parent="1" source="LXzwiHQWEJw4YaXI4GBI-2" target="LXzwiHQWEJw4YaXI4GBI-21">
          <mxGeometry relative="1" as="geometry" />
        </mxCell>
        <mxCell id="LXzwiHQWEJw4YaXI4GBI-2" value="登录" style="rounded=1;whiteSpace=wrap;html=1;" vertex="1" parent="1">
          <mxGeometry x="560" y="120" width="120" height="60" as="geometry" />
        </mxCell>
        <mxCell id="LXzwiHQWEJw4YaXI4GBI-3" value="重置密码" style="rounded=1;whiteSpace=wrap;html=1;" vertex="1" parent="1">
          <mxGeometry x="160" y="130" width="120" height="60" as="geometry" />
        </mxCell>
        <mxCell id="LXzwiHQWEJw4YaXI4GBI-5" value="输入用户邮箱" style="shape=offPageConnector;whiteSpace=wrap;html=1;" vertex="1" parent="1">
          <mxGeometry x="272.5" y="305" width="80" height="70" as="geometry" />
        </mxCell>
        <mxCell id="LXzwiHQWEJw4YaXI4GBI-6" value="" style="strokeWidth=2;html=1;shape=mxgraph.flowchart.annotation_1;align=left;pointerEvents=1;rotation=-90;" vertex="1" parent="1">
          <mxGeometry x="287.5" y="130" width="50" height="175" as="geometry" />
        </mxCell>
        <mxCell id="LXzwiHQWEJw4YaXI4GBI-8" value="" style="endArrow=classic;html=1;rounded=0;exitX=0;exitY=0.5;exitDx=0;exitDy=0;exitPerimeter=0;entryX=0.5;entryY=0;entryDx=0;entryDy=0;" edge="1" parent="1" source="LXzwiHQWEJw4YaXI4GBI-6" target="LXzwiHQWEJw4YaXI4GBI-5">
          <mxGeometry width="50" height="50" relative="1" as="geometry">
            <mxPoint x="110" y="290" as="sourcePoint" />
            <mxPoint x="110" y="400" as="targetPoint" />
          </mxGeometry>
        </mxCell>
        <mxCell id="LXzwiHQWEJw4YaXI4GBI-9" value="redis" style="image;aspect=fixed;perimeter=ellipsePerimeter;html=1;align=center;shadow=0;dashed=0;spacingTop=3;image=img/lib/active_directory/database.svg;" vertex="1" parent="1">
          <mxGeometry x="287.5" y="480" width="50" height="37" as="geometry" />
        </mxCell>
        <mxCell id="LXzwiHQWEJw4YaXI4GBI-10" value="随机生成6位验证码" style="text;html=1;strokeColor=none;fillColor=none;align=center;verticalAlign=middle;whiteSpace=wrap;rounded=0;" vertex="1" parent="1">
          <mxGeometry x="282.5" y="410" width="60" height="30" as="geometry" />
        </mxCell>
        <mxCell id="LXzwiHQWEJw4YaXI4GBI-11" value="" style="endArrow=classic;html=1;rounded=0;exitX=0.5;exitY=1;exitDx=0;exitDy=0;entryX=0.5;entryY=0;entryDx=0;entryDy=0;" edge="1" parent="1" source="LXzwiHQWEJw4YaXI4GBI-5" target="LXzwiHQWEJw4YaXI4GBI-10">
          <mxGeometry width="50" height="50" relative="1" as="geometry">
            <mxPoint x="80" y="560" as="sourcePoint" />
            <mxPoint x="130" y="510" as="targetPoint" />
          </mxGeometry>
        </mxCell>
        <mxCell id="LXzwiHQWEJw4YaXI4GBI-12" value="" style="endArrow=classic;html=1;rounded=0;exitX=0.5;exitY=1;exitDx=0;exitDy=0;entryX=0.5;entryY=0;entryDx=0;entryDy=0;" edge="1" parent="1" source="LXzwiHQWEJw4YaXI4GBI-10" target="LXzwiHQWEJw4YaXI4GBI-9">
          <mxGeometry width="50" height="50" relative="1" as="geometry">
            <mxPoint x="520" y="520" as="sourcePoint" />
            <mxPoint x="570" y="470" as="targetPoint" />
          </mxGeometry>
        </mxCell>
        <mxCell id="LXzwiHQWEJw4YaXI4GBI-14" value="邮件通知" style="image;aspect=fixed;perimeter=ellipsePerimeter;html=1;align=center;shadow=0;dashed=0;spacingTop=3;image=img/lib/active_directory/internet_globe.svg;" vertex="1" parent="1">
          <mxGeometry x="287.5" y="570" width="50" height="50" as="geometry" />
        </mxCell>
        <mxCell id="LXzwiHQWEJw4YaXI4GBI-15" value="数据库" style="image;aspect=fixed;perimeter=ellipsePerimeter;html=1;align=center;shadow=0;dashed=0;spacingTop=3;image=img/lib/active_directory/database_partition_3.svg;" vertex="1" parent="1">
          <mxGeometry x="595" y="573" width="50" height="37" as="geometry" />
        </mxCell>
        <mxCell id="LXzwiHQWEJw4YaXI4GBI-16" value="" style="endArrow=classic;html=1;rounded=0;exitX=0.5;exitY=1;exitDx=0;exitDy=0;entryX=0.5;entryY=0;entryDx=0;entryDy=0;" edge="1" parent="1" source="LXzwiHQWEJw4YaXI4GBI-9" target="LXzwiHQWEJw4YaXI4GBI-14">
          <mxGeometry width="50" height="50" relative="1" as="geometry">
            <mxPoint x="520" y="520" as="sourcePoint" />
            <mxPoint x="570" y="470" as="targetPoint" />
          </mxGeometry>
        </mxCell>
        <mxCell id="LXzwiHQWEJw4YaXI4GBI-18" value="&lt;h1&gt;用户确认&lt;/h1&gt;&lt;p&gt;&lt;br&gt;&lt;/p&gt;" style="text;html=1;strokeColor=none;fillColor=none;spacing=5;spacingTop=-20;whiteSpace=wrap;overflow=hidden;rounded=0;" vertex="1" parent="1">
          <mxGeometry x="400" y="573" width="140" height="56.5" as="geometry" />
        </mxCell>
        <mxCell id="LXzwiHQWEJw4YaXI4GBI-19" value="" style="endArrow=classic;html=1;rounded=0;exitX=1;exitY=0.5;exitDx=0;exitDy=0;entryX=-0.03;entryY=0.372;entryDx=0;entryDy=0;entryPerimeter=0;" edge="1" parent="1" source="LXzwiHQWEJw4YaXI4GBI-14" target="LXzwiHQWEJw4YaXI4GBI-18">
          <mxGeometry width="50" height="50" relative="1" as="geometry">
            <mxPoint x="520" y="520" as="sourcePoint" />
            <mxPoint x="570" y="470" as="targetPoint" />
          </mxGeometry>
        </mxCell>
        <mxCell id="LXzwiHQWEJw4YaXI4GBI-21" value="输入用户账号&lt;br&gt;密码" style="rounded=0;whiteSpace=wrap;html=1;" vertex="1" parent="1">
          <mxGeometry x="560" y="260" width="120" height="60" as="geometry" />
        </mxCell>
        <mxCell id="LXzwiHQWEJw4YaXI4GBI-23" value="" style="curved=1;endArrow=classic;html=1;rounded=0;entryX=0;entryY=0.5;entryDx=0;entryDy=0;" edge="1" parent="1" source="LXzwiHQWEJw4YaXI4GBI-18" target="LXzwiHQWEJw4YaXI4GBI-9">
          <mxGeometry width="50" height="50" relative="1" as="geometry">
            <mxPoint x="440" y="740" as="sourcePoint" />
            <mxPoint x="180" y="690" as="targetPoint" />
            <Array as="points">
              <mxPoint x="480" y="690" />
              <mxPoint x="470" y="740" />
              <mxPoint x="430" y="730" />
              <mxPoint x="300" y="730" />
              <mxPoint x="240" y="720" />
              <mxPoint x="210" y="480" />
            </Array>
          </mxGeometry>
        </mxCell>
        <mxCell id="LXzwiHQWEJw4YaXI4GBI-24" value="&lt;font style=&quot;font-size: 20px;&quot;&gt;验证码校验对比&lt;/font&gt;" style="edgeLabel;html=1;align=center;verticalAlign=middle;resizable=0;points=[];" vertex="1" connectable="0" parent="LXzwiHQWEJw4YaXI4GBI-23">
          <mxGeometry x="-0.3321" y="-2" relative="1" as="geometry">
            <mxPoint as="offset" />
          </mxGeometry>
        </mxCell>
        <mxCell id="LXzwiHQWEJw4YaXI4GBI-25" value="" style="curved=1;endArrow=classic;html=1;rounded=0;entryX=0;entryY=0.75;entryDx=0;entryDy=0;" edge="1" parent="1" source="LXzwiHQWEJw4YaXI4GBI-9" target="LXzwiHQWEJw4YaXI4GBI-15">
          <mxGeometry width="50" height="50" relative="1" as="geometry">
            <mxPoint x="500" y="490" as="sourcePoint" />
            <mxPoint x="550" y="440" as="targetPoint" />
            <Array as="points">
              <mxPoint x="440" y="500" />
              <mxPoint x="550" y="490" />
              <mxPoint x="510" y="580" />
            </Array>
          </mxGeometry>
        </mxCell>
        <mxCell id="LXzwiHQWEJw4YaXI4GBI-26" value="&lt;font style=&quot;font-size: 17px;&quot;&gt;数据加密持久化存储&lt;/font&gt;" style="edgeLabel;html=1;align=center;verticalAlign=middle;resizable=0;points=[];" vertex="1" connectable="0" parent="LXzwiHQWEJw4YaXI4GBI-25">
          <mxGeometry x="-0.4126" y="1" relative="1" as="geometry">
            <mxPoint as="offset" />
          </mxGeometry>
        </mxCell>
        <mxCell id="LXzwiHQWEJw4YaXI4GBI-27" value="" style="endArrow=classic;html=1;rounded=0;entryX=0.5;entryY=0;entryDx=0;entryDy=0;exitX=0.5;exitY=1;exitDx=0;exitDy=0;" edge="1" parent="1" source="LXzwiHQWEJw4YaXI4GBI-21" target="LXzwiHQWEJw4YaXI4GBI-15">
          <mxGeometry width="50" height="50" relative="1" as="geometry">
            <mxPoint x="520" y="510" as="sourcePoint" />
            <mxPoint x="570" y="460" as="targetPoint" />
          </mxGeometry>
        </mxCell>
        <mxCell id="LXzwiHQWEJw4YaXI4GBI-28" value="&lt;font style=&quot;font-size: 18px;&quot;&gt;用户信息加密校验对比&lt;/font&gt;" style="edgeLabel;html=1;align=center;verticalAlign=middle;resizable=0;points=[];" vertex="1" connectable="0" parent="LXzwiHQWEJw4YaXI4GBI-27">
          <mxGeometry x="-0.404" relative="1" as="geometry">
            <mxPoint as="offset" />
          </mxGeometry>
        </mxCell>
        <mxCell id="LXzwiHQWEJw4YaXI4GBI-29" value="" style="endArrow=classic;html=1;rounded=0;exitX=0.5;exitY=1;exitDx=0;exitDy=0;entryX=0.421;entryY=0;entryDx=0;entryDy=0;entryPerimeter=0;" edge="1" parent="1" source="LXzwiHQWEJw4YaXI4GBI-15" target="LXzwiHQWEJw4YaXI4GBI-30">
          <mxGeometry width="50" height="50" relative="1" as="geometry">
            <mxPoint x="680" y="600" as="sourcePoint" />
            <mxPoint x="730" y="550" as="targetPoint" />
          </mxGeometry>
        </mxCell>
        <mxCell id="LXzwiHQWEJw4YaXI4GBI-30" value="&lt;h1&gt;校验成功&lt;/h1&gt;&lt;p&gt;返回用户token信息&lt;/p&gt;" style="text;html=1;strokeColor=none;fillColor=none;spacing=5;spacingTop=-20;whiteSpace=wrap;overflow=hidden;rounded=0;" vertex="1" parent="1">
          <mxGeometry x="540" y="670" width="190" height="120" as="geometry" />
        </mxCell>
      </root>
    </mxGraphModel>
  </diagram>
</mxfile>
